<svg version="1.1" id="Layer_1" xmlns="http://www.w3.org/2000/svg" xmlns:xlink="http://www.w3.org/1999/xlink" x="0px" y="0px"
	 width="100%" viewBox="0 0 71 62" enable-background="new 0 0 71 62" xml:space="preserve">
<path fill="#000000" opacity="1.000000" stroke="none" 
	d="
M42.000000,63.000000 
	C28.000002,63.000000 14.500003,63.000000 1.000004,63.000000 
	C1.000002,42.333336 1.000002,21.666676 1.000001,1.000009 
	C24.666658,1.000006 48.333317,1.000006 71.999985,1.000003 
	C71.999985,21.666658 71.999985,42.333317 71.999992,62.999985 
	C62.166668,63.000000 52.333332,63.000000 42.000000,63.000000 
M46.093067,22.402559 
	C46.333282,21.773779 46.573494,21.144997 46.813709,20.516216 
	C46.216751,20.733795 45.619793,20.951372 44.369724,21.017536 
	C43.925232,20.979282 43.480743,20.941027 43.007748,20.198471 
	C42.617771,19.275904 42.227791,18.353336 41.837811,17.430771 
	C41.504509,17.958473 41.171207,18.486177 39.959583,19.010653 
	C36.969028,19.062130 33.978474,19.113607 30.547430,19.002810 
	C30.547430,19.002810 30.079416,18.966345 29.900255,18.488611 
	C29.673504,18.662380 29.446754,18.836149 29.042038,19.466745 
	C29.042038,19.466745 28.923632,19.942501 28.504427,19.979433 
	C28.504427,19.979433 28.091402,19.898769 27.800896,19.261913 
	C26.836437,20.158558 25.871979,21.055202 24.203197,22.366835 
	C24.193453,24.564188 24.183710,26.761543 24.100962,29.518610 
	C24.363235,29.990036 24.625509,30.461462 24.317844,31.193584 
	C24.524183,32.120003 24.730522,33.046421 24.373051,34.247852 
	C24.332903,34.848160 24.292755,35.448463 24.103342,36.766537 
	C24.062748,37.497917 24.022156,38.229298 23.470682,39.086704 
	C23.636398,39.405113 23.802113,39.723526 23.999462,40.021755 
	C23.999462,40.021755 23.969820,40.021553 24.019768,40.525013 
	C24.069706,40.686108 24.119644,40.847206 24.028294,41.835167 
	C23.846333,45.089237 26.087461,44.902084 28.331093,45.032585 
	C33.229080,45.317478 38.116756,45.779636 43.387383,46.818329 
	C47.926609,46.823227 52.465836,46.828125 57.818542,46.958534 
	C61.978622,42.630260 59.919460,37.730728 58.845837,32.335861 
	C58.507889,31.556095 58.169937,30.776329 57.703671,29.215080 
	C56.486179,28.476200 55.330639,27.267984 54.038139,27.097393 
	C51.449932,26.755791 48.786800,26.981895 46.019733,26.504822 
	C46.019733,26.504822 45.850719,26.047222 45.983017,25.286442 
	C45.933689,24.522663 45.884361,23.758884 46.093067,22.402559 
z"/>
<path fill="#FCB046" opacity="1.000000" stroke="none" 
	d="
M57.831985,29.996563 
	C58.169937,30.776329 58.507889,31.556095 58.695312,32.910492 
	C58.031544,37.934425 57.518303,42.383724 57.005062,46.833023 
	C52.465836,46.828125 47.926609,46.823227 43.524075,46.332203 
	C44.460728,44.567375 45.260693,43.288673 46.337185,41.880554 
	C46.409943,40.835926 46.206173,39.920712 46.184433,38.959396 
	C46.366463,38.913300 46.739502,38.869926 47.163422,38.896698 
	C51.917088,39.104839 55.176003,38.157463 55.165440,32.764931 
	C55.163635,31.843887 56.899090,30.919439 57.831985,29.996563 
z"/>
<path fill="#56BCFB" opacity="1.000000" stroke="none" 
	d="
M28.091402,19.898769 
	C28.091402,19.898769 28.504427,19.979433 29.010338,20.212103 
	C33.327179,20.957254 37.138107,21.469734 40.974625,22.273430 
	C41.320801,23.013405 41.641388,23.462164 41.961975,23.910923 
	C42.320068,22.908207 42.678162,21.905489 43.036251,20.902771 
	C43.480743,20.941027 43.925232,20.979282 44.695999,21.394396 
	C45.030514,22.172674 45.038750,22.574093 45.041801,23.302620 
	C45.307987,24.435560 45.579353,25.241392 45.850719,26.047222 
	C45.850719,26.047222 46.019733,26.504822 46.008614,26.987385 
	C45.941559,27.634211 45.885620,27.798477 45.372368,27.964802 
	C38.625320,27.934582 32.335579,27.902306 26.034000,27.455925 
	C26.013340,25.364960 26.004517,23.688101 26.301659,21.918917 
	C27.102217,21.183983 27.596809,20.541376 28.091402,19.898769 
z"/>
<path fill="#FEBD44" opacity="1.000000" stroke="none" 
	d="
M45.829681,27.962746 
	C45.885620,27.798477 45.941559,27.634211 46.076050,27.221786 
	C48.786800,26.981895 51.449932,26.755791 54.038139,27.097393 
	C55.330639,27.267984 56.486179,28.476200 57.767826,29.605822 
	C56.899090,30.919439 55.163635,31.843887 55.165440,32.764931 
	C55.176003,38.157463 51.917088,39.104839 47.179344,38.542099 
	C46.748295,37.451111 46.725239,36.741489 46.800598,35.694260 
	C46.828846,34.898972 46.758682,34.441288 46.727333,33.650021 
	C46.485241,32.520176 46.204330,31.723917 45.953941,30.557751 
	C45.932865,29.446146 45.881271,28.704445 45.829681,27.962746 
z"/>
<path fill="#4EB0FD" opacity="1.000000" stroke="none" 
	d="
M46.702179,36.031868 
	C46.725239,36.741489 46.748295,37.451111 46.755428,38.515327 
	C46.739502,38.869926 46.366463,38.913300 45.773102,39.033092 
	C38.109764,39.442444 31.039793,39.731998 23.969820,40.021553 
	C23.969820,40.021553 23.999462,40.021755 24.002522,39.761681 
	C23.997576,39.321301 23.989569,39.140987 23.981564,38.960678 
	C24.022156,38.229298 24.062748,37.497917 24.367973,36.421867 
	C24.632607,36.077194 25.013254,36.059425 25.438450,36.047935 
	C32.338375,36.066044 38.813103,36.095650 45.379555,36.206081 
	C45.734070,36.324757 45.952709,36.227028 46.271198,35.999405 
	C46.415199,36.005089 46.702179,36.031868 46.702179,36.031868 
z"/>
<path fill="#4596FB" opacity="1.000000" stroke="none" 
	d="
M46.060654,42.009968 
	C45.260693,43.288673 44.460728,44.567375 43.334705,46.007725 
	C38.116756,45.779636 33.229080,45.317478 28.331093,45.032585 
	C26.087461,44.902084 23.846333,45.089237 24.497131,41.506878 
	C31.997532,41.455715 39.029091,41.732841 46.060654,42.009968 
z"/>
<path fill="#52B5FC" opacity="1.000000" stroke="none" 
	d="
M45.923424,30.927658 
	C46.204330,31.723917 46.485241,32.520176 46.279366,33.663284 
	C38.930882,34.001419 32.069180,33.992706 25.141670,33.936462 
	C25.075859,33.888924 24.936863,33.972839 24.936863,33.972839 
	C24.730522,33.046421 24.524183,32.120003 25.077618,31.080406 
	C32.532738,30.954041 39.228081,30.940849 45.923424,30.927658 
z"/>
<path fill="#3A92EA" opacity="1.000000" stroke="none" 
	d="
M45.953941,30.557751 
	C39.228081,30.940849 32.532738,30.954041 25.362589,30.950058 
	C24.625509,30.461462 24.363235,29.990036 24.373787,29.108868 
	C25.113020,28.422760 25.579430,28.146397 26.045839,27.870029 
	C32.335579,27.902306 38.625320,27.934582 45.372368,27.964802 
	C45.881271,28.704445 45.932865,29.446146 45.953941,30.557751 
z"/>
<path fill="#3A8FF0" opacity="1.000000" stroke="none" 
	d="
M46.337181,41.880554 
	C39.029091,41.732841 31.997532,41.455715 24.567776,41.093449 
	C24.119644,40.847206 24.069706,40.686108 23.994793,40.273285 
	C31.039793,39.731998 38.109764,39.442444 45.591072,39.079193 
	C46.206173,39.920712 46.409943,40.835926 46.337181,41.880554 
z"/>
<path fill="#FBB755" opacity="1.000000" stroke="none" 
	d="
M57.411804,46.895782 
	C57.518303,42.383724 58.031544,37.934425 58.825233,33.215355 
	C59.919460,37.730728 61.978622,42.630260 57.411804,46.895782 
z"/>
<path fill="#5FC5EF" opacity="1.000000" stroke="none" 
	d="
M40.949036,21.982216 
	C37.138107,21.469734 33.327179,20.957254 29.219940,20.193638 
	C28.923632,19.942501 29.042038,19.466745 29.345978,19.229244 
	C29.649920,18.991743 30.079416,18.966345 30.079416,18.966345 
	C30.079416,18.966345 30.547430,19.002810 31.108578,19.300074 
	C34.732613,19.680614 37.795498,19.763891 40.889229,20.202328 
	C40.929729,21.032396 40.939384,21.507307 40.949036,21.982216 
z"/>
<path fill="#41A4EB" opacity="1.000000" stroke="none" 
	d="
M40.974625,22.273430 
	C40.939384,21.507307 40.929729,21.032396 40.885090,19.994209 
	C40.850105,19.430929 40.837906,19.013882 40.837906,19.013882 
	C41.171207,18.486177 41.504509,17.958473 41.837811,17.430771 
	C42.227791,18.353336 42.617771,19.275904 43.021999,20.550621 
	C42.678162,21.905489 42.320068,22.908207 41.961975,23.910923 
	C41.641388,23.462164 41.320801,23.013405 40.974625,22.273430 
z"/>
<path fill="#4EAEF6" opacity="1.000000" stroke="none" 
	d="
M26.034000,27.455925 
	C25.579430,28.146397 25.113020,28.422760 24.410290,28.829010 
	C24.183710,26.761543 24.193453,24.564188 24.827423,22.172411 
	C25.632998,21.989071 25.814344,22.000156 25.995693,22.011242 
	C26.004517,23.688101 26.013340,25.364960 26.034000,27.455925 
z"/>
<path fill="#A8E1F6" opacity="1.000000" stroke="none" 
	d="
M40.398743,19.012268 
	C40.837906,19.013882 40.850105,19.430929 40.854244,19.639050 
	C37.795498,19.763891 34.732613,19.680614 31.328823,19.381212 
	C33.978474,19.113607 36.969028,19.062130 40.398743,19.012268 
z"/>
<path fill="#5EC4EE" opacity="1.000000" stroke="none" 
	d="
M26.301659,21.918917 
	C25.814344,22.000156 25.632998,21.989071 25.179585,21.964916 
	C25.871979,21.055202 26.836437,20.158558 27.946148,19.580341 
	C27.596809,20.541376 27.102217,21.183983 26.301659,21.918917 
z"/>
<path fill="#84D1F6" opacity="1.000000" stroke="none" 
	d="
M45.046982,22.975512 
	C45.038750,22.574093 45.030514,22.172674 45.022556,21.470104 
	C45.619793,20.951372 46.216751,20.733795 46.813705,20.516216 
	C46.573494,21.144997 46.333282,21.773779 45.767010,22.695061 
	C45.440952,22.987564 45.046982,22.975512 45.046982,22.975512 
z"/>
<path fill="#76C8FC" opacity="1.000000" stroke="none" 
	d="
M45.041801,23.302620 
	C45.046982,22.975512 45.440952,22.987564 45.637993,22.991335 
	C45.884361,23.758884 45.933689,24.522663 45.916870,25.666832 
	C45.579353,25.241392 45.307987,24.435560 45.041801,23.302620 
z"/>
<path fill="#4195DD" opacity="1.000000" stroke="none" 
	d="
M25.013256,36.059425 
	C25.013254,36.059425 24.632607,36.077194 24.442608,36.062981 
	C24.292755,35.448463 24.332903,34.848160 24.654957,34.110344 
	C24.936863,33.972839 25.075859,33.888924 25.084389,34.280121 
	C25.066364,35.134022 25.039810,35.596722 25.013256,36.059425 
z"/>
<path fill="#56BCFB" opacity="1.000000" stroke="none" 
	d="
M29.989836,18.727478 
	C30.079416,18.966345 29.649920,18.991743 29.434961,19.000832 
	C29.446754,18.836149 29.673504,18.662380 29.989836,18.727478 
z"/>
<path fill="#4195DD" opacity="1.000000" stroke="none" 
	d="
M23.726124,39.023689 
	C23.989569,39.140987 23.997576,39.321301 23.986706,39.771774 
	C23.802113,39.723526 23.636398,39.405113 23.726124,39.023689 
z"/>
<path fill="#3A91ED" opacity="1.000000" stroke="none" 
	d="
M25.438450,36.047935 
	C25.039810,35.596722 25.066364,35.134022 25.150200,34.327660 
	C32.069180,33.992706 38.930882,34.001419 46.240547,33.996868 
	C46.758682,34.441288 46.828846,34.898972 46.800594,35.694260 
	C46.702179,36.031868 46.415199,36.005089 46.061447,36.038914 
	C45.707691,36.072739 45.287830,36.125256 45.287830,36.125256 
	C38.813103,36.095650 32.338375,36.066044 25.438450,36.047935 
z"/>
<path fill="#8AAEBD" opacity="1.000000" stroke="none" 
	d="
M45.379555,36.206081 
	C45.287830,36.125256 45.707691,36.072739 45.917442,36.033230 
	C45.952709,36.227028 45.734070,36.324757 45.379555,36.206081 
z"/>
</svg>